<svg width="10" height="10" viewBox="0 0 10 10" fill="none" xmlns="http://www.w3.org/2000/svg">
<path fill-rule="evenodd" clip-rule="evenodd" d="M0.102172 9.83791C-0.0340573 9.70251 -0.0340573 9.48298 0.102172 9.34757L9.4045 0.101554C9.54073 -0.0338511 9.7616 -0.0338513 9.89783 0.101554C10.0341 0.236958 10.0341 0.456493 9.89783 0.591898L0.595502 9.83791C0.459273 9.97332 0.238401 9.97332 0.102172 9.83791Z" fill="white"/>
<path fill-rule="evenodd" clip-rule="evenodd" d="M0.102172 0.162085C0.238401 0.0266803 0.459273 0.0266803 0.595502 0.162085L9.89783 9.4081C10.0341 9.54351 10.0341 9.76304 9.89783 9.89845C9.7616 10.0339 9.54073 10.0339 9.4045 9.89845L0.102172 0.652429C-0.0340574 0.517024 -0.0340574 0.29749 0.102172 0.162085Z" fill="white"/>
</svg>
